<?xml version="1.0" encoding="UTF-8"?>
<!-- Created with Inkscape (http://www.inkscape.org/) -->
<svg width="91.746mm" height="27.637mm" version="1.1" viewBox="0 0 91.746 27.637" xmlns="http://www.w3.org/2000/svg">
 <defs>
  <linearGradient id="linearGradient53-6" x2="1" gradientTransform="matrix(6.362 0 0 6.362 42.677 141.93)" gradientUnits="userSpaceOnUse">
   <stop stop-color="#006d8c" offset="0"/>
   <stop stop-color="#00d8c6" offset="1"/>
  </linearGradient>
  <linearGradient id="linearGradient57-1" x2="1" gradientTransform="matrix(6.362 0 0 6.362 39.366 127.68)" gradientUnits="userSpaceOnUse">
   <stop stop-color="#00d8c6" offset="0"/>
   <stop stop-color="#00d8c6" offset=".18473"/>
   <stop stop-color="#006d8c" offset=".9995"/>
   <stop stop-color="#006d8c" offset="1"/>
  </linearGradient>
  <clipPath id="clipPath59-3">
   <path transform="translate(-200.75 -522.8)" d="M 0,841.89 H 595.28 V 0 H 0 Z"/>
  </clipPath>
  <clipPath id="clipPath61-9">
   <path transform="translate(-191.36 -482.13)" d="M 0,841.89 H 595.28 V 0 H 0 Z"/>
  </clipPath>
  <clipPath id="clipPath63-1">
   <path transform="translate(-177.12 -509.78)" d="M 0,841.89 H 595.28 V 0 H 0 Z"/>
  </clipPath>
  <clipPath id="clipPath65-2">
   <path transform="translate(-199.54 -463.48)" d="M 0,841.89 H 595.28 V 0 H 0 Z"/>
  </clipPath>
  <clipPath id="clipPath67-03">
   <path transform="translate(-230.63 -487.5)" d="M 0,841.89 H 595.28 V 0 H 0 Z"/>
  </clipPath>
  <clipPath id="clipPath69-0">
   <path transform="translate(-225.22 -510.71)" d="M 0,841.89 H 595.28 V 0 H 0 Z"/>
  </clipPath>
  <clipPath id="clipPath71-5">
   <path transform="translate(-227.35 -522.49)" d="M 0,841.89 H 595.28 V 0 H 0 Z"/>
  </clipPath>
  <clipPath id="clipPath73-94">
   <path transform="translate(-217.09 -502.28)" d="M 0,841.89 H 595.28 V 0 H 0 Z"/>
  </clipPath>
  <clipPath id="clipPath75-8">
   <path transform="translate(-239.49 -465.26)" d="M 0,841.89 H 595.28 V 0 H 0 Z"/>
  </clipPath>
  <clipPath id="clipPath77-5">
   <path transform="translate(-241.62 -450.71)" d="M 0,841.89 H 595.28 V 0 H 0 Z"/>
  </clipPath>
  <clipPath id="clipPath79-20">
   <path transform="translate(-217.69 -513.94)" d="M 0,841.89 H 595.28 V 0 H 0 Z"/>
  </clipPath>
  <clipPath id="clipPath81-6">
   <path transform="translate(-213.08 -522.49)" d="M 0,841.89 H 595.28 V 0 H 0 Z"/>
  </clipPath>
  <clipPath id="clipPath83-0">
   <path transform="translate(-216.36 -467.66)" d="M 0,841.89 H 595.28 V 0 H 0 Z"/>
  </clipPath>
  <clipPath id="clipPath85-1">
   <path transform="translate(-210.96 -473.06)" d="M 0,841.89 H 595.28 V 0 H 0 Z"/>
  </clipPath>
  <clipPath id="clipPath87-9">
   <path transform="translate(-230.63 -466.69)" d="M 0,841.89 H 595.28 V 0 H 0 Z"/>
  </clipPath>
  <clipPath id="clipPath89-4">
   <path transform="translate(-230.63 -458.56)" d="M 0,841.89 H 595.28 V 0 H 0 Z"/>
  </clipPath>
  <clipPath id="clipPath91-4">
   <path transform="translate(-226.56 -462.63)" d="M 0,841.89 H 595.28 V 0 H 0 Z"/>
  </clipPath>
  <clipPath id="clipPath93-9">
   <path transform="translate(-226.56 -483.43)" d="M 0,841.89 H 595.28 V 0 H 0 Z"/>
  </clipPath>
  <clipPath id="clipPath95-8">
   <path transform="translate(-244.89 -517.4)" d="M 0,841.89 H 595.28 V 0 H 0 Z"/>
  </clipPath>
  <clipPath id="clipPath97-7">
   <path transform="translate(-246.23 -496.36)" d="M 0,841.89 H 595.28 V 0 H 0 Z"/>
  </clipPath>
  <clipPath id="clipPath99-38">
   <path transform="translate(-240.83 -513.34)" d="M 0,841.89 H 595.28 V 0 H 0 Z"/>
  </clipPath>
  <clipPath id="clipPath101-7">
   <path transform="translate(-266.48 -488.48)" d="M 0,841.89 H 595.28 V 0 H 0 Z"/>
  </clipPath>
  <clipPath id="clipPath103-07">
   <path transform="translate(-300.07 -488.48)" d="M 0,841.89 H 595.28 V 0 H 0 Z"/>
  </clipPath>
  <clipPath id="clipPath105-4">
   <path transform="translate(-292.93 -479.8)" d="M 0,841.89 H 595.28 V 0 H 0 Z"/>
  </clipPath>
  <clipPath id="clipPath107-6">
   <path transform="translate(-309.13 -462.57)" d="M 0,841.89 H 595.28 V 0 H 0 Z"/>
  </clipPath>
  <clipPath id="clipPath109-0">
   <path transform="translate(-346.05 -479.02)" d="M 0,841.89 H 595.28 V 0 H 0 Z"/>
  </clipPath>
  <clipPath id="clipPath111-9">
   <path transform="translate(-383.17 -453.97)" d="M 0,841.89 H 595.28 V 0 H 0 Z"/>
  </clipPath>
  <clipPath id="clipPath113">
   <path transform="translate(-409.57 -448.35)" d="M 0,841.89 H 595.28 V 0 H 0 Z"/>
  </clipPath>
 </defs>
 <g transform="translate(-37.571 -115.89)">
  <path d="m43.326 141.28c-0.35842 0-0.64911 0.29033-0.64911 0.64876 0 0.35877 0.29069 0.64946 0.64911 0.64946h5.0638c0.35842 0 0.64911-0.29069 0.64911-0.64946 0-0.35843-0.29069-0.64876-0.64911-0.64876z" fill="url(#linearGradient53-6)"/>
  <path d="m40.016 127.03c-0.35842 0-0.64911 0.29033-0.64911 0.64911 0 0.35877 0.29069 0.64911 0.64911 0.64911h5.0634c0.35878 0 0.64946-0.29034 0.64946-0.64911 0-0.35878-0.29069-0.64911-0.64946-0.64911z" fill="url(#linearGradient57-1)"/>
  <g fill="#00d8c6">
   <path transform="matrix(.35278 0 0 -.35278 48.39 116.94)" d="m0 0h-14.354c-1.016 0-1.84-0.824-1.84-1.84 0-1.017 0.824-1.841 1.84-1.841h14.354c1.016 0 1.84 0.824 1.84 1.841 0 1.016-0.824 1.84-1.84 1.84" clip-path="url(#clipPath59-3)"/>
   <path transform="matrix(.35278 0 0 -.35278 45.079 131.28)" d="m0 0h-14.354c-1.015 0-1.839-0.824-1.839-1.84s0.824-1.84 1.839-1.84h14.354c1.017 0 1.841 0.824 1.841 1.84s-0.824 1.84-1.841 1.84" clip-path="url(#clipPath61-9)"/>
   <path transform="matrix(.35278 0 0 -.35278 40.053 121.53)" d="m0 0c-4.28 3.34-7.035 8.542-7.035 14.392v0.032c1e-3 0.383 0.318 0.69 0.701 0.69h5.658c0.393 0 0.701-0.322 0.701-0.715v-7e-3c0-3.275 1.415-6.223 3.665-8.27l0.618-0.519c0.128-0.101 0.255-0.201 0.387-0.296 0.012-8e-3 0.023-0.016 0.034-0.026l6.034-5.071c0.26-0.219 0.641-0.219 0.902 0l5.036 4.232 1.976 1.629c0.037 0.034 0.075 0.067 0.113 0.101 0.109 0.102 0.217 0.206 0.323 0.312 0.057 0.057 0.114 0.115 0.169 0.173 0.102 0.105 0.201 0.212 0.298 0.322 0.056 0.063 0.11 0.126 0.165 0.191 0.093 0.11 0.186 0.22 0.275 0.333 0.052 0.068 0.103 0.138 0.155 0.206 0.086 0.115 0.172 0.23 0.253 0.348 0.046 0.067 0.089 0.136 0.134 0.204 0.155 0.238 0.393 0.639 0.532 0.888 0.01 0.019 0.02 0.039 0.031 0.058 0.054 0.102 0.102 0.208 0.152 0.312 0.053 0.108 0.107 0.215 0.156 0.325 0.046 0.102 0.088 0.207 0.129 0.311 0.048 0.116 0.096 0.232 0.14 0.349 0.038 0.103 0.073 0.207 0.109 0.312 0.042 0.123 0.082 0.247 0.119 0.372 0.031 0.102 0.06 0.206 0.088 0.31 0.035 0.13 0.067 0.262 0.098 0.395 0.023 0.101 0.046 0.203 0.067 0.305 0.028 0.141 0.051 0.284 0.075 0.427 0.014 0.097 0.031 0.192 0.045 0.29 0.02 0.161 0.036 0.323 0.051 0.486 6e-3 0.082 0.017 0.163 0.022 0.245 0.017 0.247 0.026 0.495 0.026 0.746v7e-3c-1e-3 0.393 0.308 0.715 0.701 0.715h5.658c0.384 0 0.7-0.307 0.702-0.69v-0.032c0-0.347-0.012-0.691-0.031-1.033-6e-3 -0.109-0.017-0.218-0.025-0.327-0.017-0.233-0.037-0.465-0.062-0.695-0.015-0.125-0.032-0.249-0.048-0.374-0.028-0.214-0.061-0.428-0.097-0.641-0.02-0.124-0.042-0.248-0.066-0.371-0.041-0.218-0.088-0.434-0.137-0.649-0.025-0.111-0.05-0.221-0.077-0.331-0.064-0.257-0.134-0.51-0.208-0.762-0.02-0.064-0.036-0.129-0.056-0.193-0.098-0.32-0.205-0.636-0.32-0.948-0.02-0.052-0.041-0.103-0.062-0.155-0.096-0.256-0.199-0.51-0.307-0.761-0.039-0.09-0.08-0.178-0.12-0.267-0.097-0.212-0.196-0.423-0.3-0.631-0.047-0.094-0.095-0.187-0.143-0.28-0.107-0.205-0.218-0.409-0.333-0.61-0.048-0.084-0.095-0.168-0.144-0.251-0.132-0.223-0.27-0.442-0.41-0.658-0.037-0.056-0.071-0.112-0.108-0.167-0.368-0.554-0.766-1.086-1.192-1.595-0.032-0.039-0.068-0.077-0.101-0.116-0.179-0.21-0.361-0.416-0.549-0.617-0.049-0.054-0.1-0.106-0.151-0.159-0.177-0.185-0.357-0.367-0.542-0.545-0.06-0.058-0.12-0.116-0.181-0.173-0.191-0.179-0.385-0.354-0.584-0.524-0.05-0.043-0.099-0.087-0.149-0.129-0.183-0.154-0.369-0.303-0.558-0.45l-5.067-4.252c-0.334-0.28-0.334-0.793 0-1.074l4.204-3.533c0.014-0.012 0.029-0.022 0.043-0.034 4.758-3.677 7.881-8.788 7.881-15.015 0-5.527-2.46-10.478-6.342-13.824-0.264-0.227-0.65-0.235-0.917-0.012l-4.418 3.714c-0.351 0.296-0.323 0.837 0.046 1.109 2.77 2.038 4.57 5.319 4.57 9.013 0 2.952-1.153 5.636-3.028 7.637-0.021 0.023-0.044 0.045-0.068 0.065z" clip-path="url(#clipPath63-1)"/>
   <path transform="matrix(.35278 0 0 -.35278 47.965 137.86)" d="m0 0c4.279-3.34 7.035-8.542 7.035-14.392v-0.032c-2e-3 -0.383-0.318-0.69-0.702-0.69h-5.658c-0.393 0-0.701 0.322-0.7 0.715v7e-3c0 3.275-1.416 6.223-3.666 8.27l-0.618 0.519c-0.127 0.101-0.254 0.201-0.386 0.296-0.012 8e-3 -0.023 0.017-0.034 0.026l-6.034 5.072c-0.26 0.219-0.641 0.219-0.902 0l-5.036-4.233-1.976-1.629c-0.038-0.034-0.076-0.067-0.113-0.101-0.11-0.102-0.218-0.206-0.323-0.312-0.058-0.057-0.115-0.114-0.17-0.172-0.101-0.106-0.2-0.213-0.297-0.322-0.057-0.063-0.11-0.127-0.165-0.192-0.093-0.109-0.186-0.22-0.275-0.333-0.053-0.068-0.103-0.138-0.155-0.206-0.086-0.115-0.172-0.229-0.254-0.348-0.046-0.067-0.089-0.135-0.133-0.203-0.156-0.239-0.393-0.64-0.532-0.889-0.01-0.019-0.021-0.038-0.031-0.058-0.054-0.102-0.102-0.208-0.152-0.312-0.053-0.107-0.107-0.215-0.157-0.325-0.045-0.102-0.087-0.207-0.129-0.311-0.047-0.116-0.095-0.232-0.139-0.349-0.038-0.103-0.073-0.207-0.11-0.311-0.041-0.124-0.082-0.248-0.119-0.373-0.03-0.102-0.059-0.206-0.088-0.309-0.035-0.131-0.067-0.263-0.097-0.396-0.024-0.101-0.046-0.202-0.067-0.304-0.028-0.142-0.052-0.285-0.075-0.428-0.015-0.097-0.032-0.192-0.045-0.29-0.021-0.161-0.036-0.323-0.051-0.486-7e-3 -0.082-0.017-0.163-0.022-0.245-0.017-0.247-0.026-0.495-0.026-0.746v-7e-3c0-0.393-0.309-0.715-0.702-0.715h-5.658c-0.383 0-0.7 0.307-0.701 0.69v0.032c0 0.347 0.012 0.691 0.03 1.033 7e-3 0.109 0.018 0.218 0.026 0.327 0.016 0.233 0.036 0.465 0.062 0.695 0.014 0.125 0.032 0.25 0.048 0.374 0.028 0.214 0.06 0.428 0.096 0.641 0.021 0.124 0.043 0.248 0.066 0.371 0.042 0.218 0.088 0.434 0.138 0.649 0.025 0.111 0.049 0.222 0.076 0.331 0.064 0.257 0.135 0.51 0.209 0.762 0.019 0.064 0.035 0.129 0.055 0.193 0.098 0.32 0.206 0.637 0.321 0.949 0.019 0.052 0.041 0.103 0.061 0.154 0.097 0.257 0.199 0.511 0.308 0.761 0.038 0.09 0.08 0.178 0.12 0.267 0.096 0.213 0.196 0.423 0.299 0.632 0.047 0.093 0.095 0.186 0.144 0.279 0.107 0.206 0.218 0.409 0.333 0.61 0.048 0.084 0.095 0.168 0.144 0.251 0.132 0.223 0.269 0.442 0.409 0.658 0.037 0.056 0.072 0.113 0.108 0.168 0.369 0.553 0.767 1.085 1.192 1.594 0.033 0.039 0.069 0.077 0.102 0.116 0.178 0.21 0.36 0.416 0.548 0.617 0.049 0.054 0.1 0.106 0.151 0.159 0.178 0.185 0.357 0.367 0.542 0.545 0.061 0.058 0.12 0.116 0.182 0.173 0.19 0.179 0.385 0.354 0.584 0.524 0.049 0.043 0.098 0.087 0.149 0.129 0.183 0.154 0.369 0.304 0.558 0.45l5.067 4.252c0.333 0.28 0.334 0.793 0 1.074l-4.204 3.533c-0.014 0.012-0.029 0.022-0.044 0.034-4.758 3.677-7.88 8.788-7.88 15.015 0 5.527 2.46 10.478 6.342 13.824 0.263 0.227 0.65 0.235 0.916 0.012l4.419-3.714c0.351-0.296 0.323-0.836-0.047-1.109-2.769-2.038-4.569-5.319-4.569-9.013 0-2.952 1.153-5.636 3.027-7.637 0.021-0.023 0.045-0.045 0.069-0.065z" clip-path="url(#clipPath65-2)"/>
   <path transform="matrix(.35278 0 0 -.35278 58.929 129.39)" d="m0 0c0.469 0 0.917-0.083 1.336-0.229v14.636c0 0.206-0.167 0.372-0.372 0.372h-1.928c-0.206 0-0.373-0.166-0.373-0.372v-14.636c0.42 0.146 0.868 0.229 1.337 0.229" clip-path="url(#clipPath67-03)"/>
  </g>
  <g>
   <path transform="matrix(.35278 0 0 -.35278 57.024 121.2)" d="m0 0c0 2.983 2.419 5.402 5.402 5.402 2.984 0 5.402-2.419 5.402-5.402s-2.418-5.402-5.402-5.402c-2.983 0-5.402 2.419-5.402 5.402" clip-path="url(#clipPath69-0)" fill="#9c47b6"/>
   <path transform="matrix(.35278 0 0 -.35278 57.774 117.04)" d="m0 0c0 1.81 1.467 3.276 3.276 3.276 1.81 0 3.277-1.466 3.277-3.276 0-1.809-1.467-3.276-3.277-3.276-1.809 0-3.276 1.467-3.276 3.276" clip-path="url(#clipPath71-5)" fill="#e1b52d"/>
   <path transform="matrix(.35278 0 0 -.35278 54.154 124.18)" d="m0 0h-1.458c-0.335 0-0.607-0.271-0.607-0.607v-23.384c0.428 0.109 0.874 0.173 1.336 0.173s0.908-0.064 1.336-0.173v23.384c0 0.336-0.272 0.607-0.607 0.607" clip-path="url(#clipPath73-94)" fill="#00d8c6"/>
   <path transform="matrix(.35278 0 0 -.35278 62.057 137.24)" d="m0 0c0-2.983 2.419-5.402 5.402-5.402 2.984 0 5.403 2.419 5.403 5.402s-2.419 5.402-5.403 5.402c-2.983 0-5.402-2.419-5.402-5.402" clip-path="url(#clipPath75-8)" fill="#ff784e"/>
   <path transform="matrix(.35278 0 0 -.35278 62.807 142.37)" d="m0 0c0-1.81 1.467-3.276 3.276-3.276 1.81 0 3.277 1.466 3.277 3.276s-1.467 3.276-3.277 3.276c-1.809 0-3.276-1.466-3.276-3.276" clip-path="url(#clipPath77-5)" fill="#00d8c6"/>
   <path transform="matrix(.35278 0 0 -.35278 54.368 120.06)" d="m0 0v5.566c-0.409-0.183-0.859-0.291-1.336-0.291s-0.928 0.108-1.337 0.291v-5.566c-1.141-0.512-1.94-1.653-1.94-2.986 0-1.809 1.467-3.276 3.277-3.276 1.809 0 3.275 1.467 3.275 3.276 0 1.333-0.797 2.474-1.939 2.986" clip-path="url(#clipPath79-20)" fill="#00d8c6"/>
   <path transform="matrix(.35278 0 0 -.35278 52.74 117.04)" d="m0 0c0 1.81 1.468 3.276 3.276 3.276 1.81 0 3.277-1.466 3.277-3.276 0-1.809-1.467-3.276-3.277-3.276-1.808 0-3.276 1.467-3.276 3.276" clip-path="url(#clipPath81-6)" fill="#ff784e"/>
   <path transform="matrix(.35278 0 0 -.35278 53.896 136.39)" d="m0 0c-0.463 0-0.908 0.064-1.337 0.173v-18.815c0-0.335 0.273-0.607 0.608-0.607h1.458c0.334 0 0.607 0.272 0.607 0.607v18.815c-0.429-0.109-0.874-0.173-1.336-0.173" clip-path="url(#clipPath83-0)" fill="#00d8c6"/>
   <path transform="matrix(.35278 0 0 -.35278 51.991 134.48)" d="m0 0c0 2.983 2.418 5.402 5.401 5.402 2.985 0 5.403-2.419 5.403-5.402 0-2.984-2.418-5.402-5.403-5.402-2.983 0-5.401 2.418-5.401 5.402" clip-path="url(#clipPath85-1)" fill="#ff784e"/>
   <path transform="matrix(.35278 0 0 -.35278 58.929 136.73)" d="m0 0c0.469 0 0.917-0.083 1.336-0.229v13.135c-0.419-0.146-0.867-0.229-1.336-0.229s-0.917 0.083-1.337 0.229v-13.135c0.42 0.146 0.868 0.229 1.337 0.229" clip-path="url(#clipPath87-9)" fill="#00d8c6"/>
   <path transform="matrix(.35278 0 0 -.35278 58.929 139.6)" d="m0 0c-0.469 0-0.917 0.083-1.337 0.229v-9.778c0-0.335 0.273-0.607 0.608-0.607h1.458c0.335 0 0.607 0.272 0.607 0.607v9.778c-0.419-0.146-0.867-0.229-1.336-0.229" clip-path="url(#clipPath89-4)" fill="#00d8c6"/>
   <path transform="matrix(.35278 0 0 -.35278 57.495 138.16)" d="m0 0c0 2.245 1.82 4.064 4.065 4.064s4.065-1.819 4.065-4.064-1.82-4.065-4.065-4.065-4.065 1.82-4.065 4.065" clip-path="url(#clipPath91-4)" fill="#e1b52d"/>
   <path transform="matrix(.35278 0 0 -.35278 57.495 130.82)" d="m0 0c0 2.245 1.82 4.065 4.065 4.065s4.065-1.82 4.065-4.065-1.82-4.064-4.065-4.064-4.065 1.819-4.065 4.064" clip-path="url(#clipPath93-9)" fill="#9c47b6"/>
   <path transform="matrix(.35278 0 0 -.35278 63.962 118.84)" d="m0 0c0.469 0 0.917-0.083 1.336-0.229v7.267c0 0.329-0.267 0.596-0.597 0.596h-1.479c-0.329 0-0.596-0.267-0.596-0.596v-7.267c0.419 0.146 0.867 0.229 1.336 0.229" clip-path="url(#clipPath95-8)" fill="#00d8c6"/>
   <path transform="matrix(.35278 0 0 -.35278 64.434 126.26)" d="m0 0v13.136c-0.419-0.146-0.867-0.23-1.336-0.23s-0.917 0.083-1.336 0.23v-13.136c-1.588-0.553-2.728-2.059-2.728-3.835s1.14-3.282 2.728-3.835v-14.637c0-0.206 0.166-0.372 0.372-0.372h1.928c0.205 0 0.372 0.166 0.372 0.372v14.637c1.588 0.553 2.729 2.059 2.729 3.835s-1.141 3.282-2.729 3.835" clip-path="url(#clipPath97-7)" fill="#00d8c6"/>
   <path transform="matrix(.35278 0 0 -.35278 62.529 120.27)" d="m0 0c0-2.245 1.819-4.064 4.064-4.064 2.246 0 4.065 1.819 4.065 4.064s-1.819 4.065-4.065 4.065c-2.245 0-4.064-1.82-4.064-4.065" clip-path="url(#clipPath99-38)" fill="#e1b52d"/>
  </g>
  <g fill="#006d8c">
   <path transform="matrix(.35278 0 0 -.35278 71.579 129.04)" d="m0 0c-0.521 0-0.781 0.26-0.781 0.781v34.888c0 0.521 0.26 0.781 0.781 0.781h25.255c0.52 0 0.781-0.26 0.781-0.781v-4.218c0-0.52-0.261-0.781-0.781-0.781h-19.423v-10.727h16.976c0.52 0 0.78-0.26 0.78-0.78v-4.219c0-0.52-0.26-0.78-0.78-0.78h-16.976v-13.383c0-0.521-0.261-0.781-0.781-0.781z" clip-path="url(#clipPath101-7)"/>
   <path transform="matrix(.35278 0 0 -.35278 83.427 129.04)" d="m0 0c-0.521 0-0.781 0.26-0.781 0.781v34.888c0 0.521 0.26 0.781 0.781 0.781h5.051c0.52 0 0.781-0.26 0.781-0.781v-14.893h18.693v14.893c0 0.521 0.261 0.781 0.782 0.781h5.05c0.521 0 0.782-0.26 0.782-0.781v-34.888c0-0.521-0.261-0.781-0.782-0.781h-5.05c-0.521 0-0.782 0.26-0.782 0.781v14.216h-18.693v-14.216c0-0.521-0.261-0.781-0.781-0.781z" clip-path="url(#clipPath103-07)"/>
   <path transform="matrix(.35278 0 0 -.35278 80.911 132.1)" d="m0 0c0-0.521-0.26-0.781-0.781-0.781h-19.839v-9.789h17.652c0.521 0 0.781-0.261 0.781-0.782v-4.217c0-0.521-0.26-0.782-0.781-0.782h-17.652v-9.32h19.839c0.521 0 0.781-0.261 0.781-0.781v-4.218c0-0.521-0.26-0.781-0.781-0.781h-25.671c-0.521 0-0.781 0.26-0.781 0.781v34.888c0 0.521 0.26 0.781 0.781 0.781h25.671c0.521 0 0.781-0.26 0.781-0.781z" clip-path="url(#clipPath105-4)"/>
   <path transform="matrix(.35278 0 0 -.35278 86.624 138.18)" d="m0 0h12.654l-6.353 14.632zm-12.288-14.215c-0.66 0-0.852 0.312-0.573 0.937l15.83 34.94c0.173 0.381 0.469 0.573 0.885 0.573h4.947c0.45 0 0.746-0.192 0.885-0.573l15.725-34.94c0.277-0.625 0.087-0.937-0.572-0.937h-5.416c-0.451 0-0.747 0.19-0.885 0.572l-3.385 7.863h-17.652l-3.385-7.863c-0.138-0.382-0.434-0.572-0.885-0.572z" clip-path="url(#clipPath107-6)"/>
   <path transform="matrix(.35278 0 0 -.35278 99.648 132.38)" d="m0 0v-12.185h8.019c2.637 0 4.764 0.555 6.378 1.666 1.615 1.111 2.422 2.586 2.422 4.426 0 1.805-0.764 3.272-2.291 4.401-1.528 1.127-3.524 1.692-5.988 1.692zm25.255-29.733c0.208-0.278 0.268-0.504 0.182-0.677-0.087-0.174-0.304-0.26-0.651-0.26h-6.249c-0.347 0-0.659 0.156-0.936 0.468l-10.206 12.237h-7.395v-11.924c0-0.521-0.261-0.781-0.781-0.781h-5.051c-0.521 0-0.781 0.26-0.781 0.781v34.888c0 0.521 0.26 0.781 0.781 0.781h15.049c4.234 0 7.645-1.086 10.231-3.255 2.586-2.17 3.88-5.043 3.88-8.618 0-2.882-0.747-5.251-2.239-7.107-1.493-1.858-3.61-3.169-6.353-3.932z" clip-path="url(#clipPath109-0)"/>
   <path transform="matrix(.35278 0 0 -.35278 112.75 141.22)" d="m0 0h18.954c0.521 0 0.781-0.26 0.781-0.781v-4.061c0-0.521-0.26-0.782-0.781-0.782h-24.786c-0.521 0-0.781 0.261-0.781 0.782v34.887c0 0.521 0.26 0.782 0.781 0.782h5.051c0.52 0 0.781-0.261 0.781-0.782z" clip-path="url(#clipPath111-9)"/>
   <path transform="matrix(.35278 0 0 -.35278 122.06 143.2)" d="m0 0c-0.521 0-0.78 0.26-0.78 0.781v11.143l-14.477 23.589c-0.174 0.278-0.208 0.503-0.103 0.677 0.103 0.173 0.311 0.26 0.624 0.26h5.624c0.417 0 0.729-0.174 0.937-0.521l10.727-17.86 10.779 17.86c0.208 0.347 0.521 0.521 0.937 0.521h5.624c0.312 0 0.52-0.087 0.625-0.26 0.104-0.174 0.069-0.399-0.105-0.677l-14.475-23.589v-11.143c0-0.521-0.261-0.781-0.782-0.781z" clip-path="url(#clipPath113)"/>
  </g>
 </g>
</svg>
